<svg width="17" height="14" viewBox="0 0 17 14" fill="none" xmlns="http://www.w3.org/2000/svg">
<path d="M8.01591 5.89405C8.88782 5.89405 9.58242 6.45223 9.58242 7.12671C9.58242 7.81281 8.87307 8.35938 8.01591 8.35938C7.144 8.35938 6.4494 7.8012 6.4494 7.12671C6.4494 6.44062 7.144 5.89405 8.01591 5.89405Z" fill="#777676"/>
<path d="M12.4493 5.89405C13.3212 5.89405 14.0158 6.45223 14.0158 7.12671C14.0158 7.81281 13.3065 8.35938 12.4493 8.35938C11.5922 8.35938 10.8828 7.81281 10.8828 7.12671C10.8828 6.44062 11.5774 5.89405 12.4493 5.89405Z" fill="#777676"/>
<path d="M3.58213 5.89405C4.45404 5.89405 5.14864 6.45223 5.14864 7.12671C5.14864 7.81281 4.43929 8.35938 3.58213 8.35938C2.72497 8.35938 2.01562 7.81281 2.01562 7.12671C2.01563 6.44062 2.71022 5.89405 3.58213 5.89405Z" fill="#777676"/>
</svg>
