<svg width="24" height="25" viewBox="0 0 24 25" fill="none" xmlns="http://www.w3.org/2000/svg">
<path fill-rule="evenodd" clip-rule="evenodd" d="M5 8.38222C5 6.22038 5.02315 5.5 7.88222 5.5C10.7413 5.5 10.7644 6.22038 10.7644 8.38222C10.7644 10.5441 10.7736 11.2644 7.88222 11.2644C4.99088 11.2644 5 10.5441 5 8.38222Z" stroke="#777676" stroke-width="1.5" stroke-linecap="round" stroke-linejoin="round"/>
<path fill-rule="evenodd" clip-rule="evenodd" d="M13.2349 8.38222C13.2349 6.22038 13.258 5.5 16.1171 5.5C18.9762 5.5 18.9993 6.22038 18.9993 8.38222C18.9993 10.5441 19.0084 11.2644 16.1171 11.2644C13.2257 11.2644 13.2349 10.5441 13.2349 8.38222Z" stroke="#777676" stroke-width="1.5" stroke-linecap="round" stroke-linejoin="round"/>
<path fill-rule="evenodd" clip-rule="evenodd" d="M5 16.6185C5 14.4567 5.02315 13.7363 7.88222 13.7363C10.7413 13.7363 10.7644 14.4567 10.7644 16.6185C10.7644 18.7804 10.7736 19.5008 7.88222 19.5008C4.99088 19.5008 5 18.7804 5 16.6185Z" stroke="#777676" stroke-width="1.5" stroke-linecap="round" stroke-linejoin="round"/>
<path fill-rule="evenodd" clip-rule="evenodd" d="M13.2349 16.6185C13.2349 14.4567 13.258 13.7363 16.1171 13.7363C18.9762 13.7363 18.9993 14.4567 18.9993 16.6185C18.9993 18.7804 19.0084 19.5008 16.1171 19.5008C13.2257 19.5008 13.2349 18.7804 13.2349 16.6185Z" stroke="#777676" stroke-width="1.5" stroke-linecap="round" stroke-linejoin="round"/>
</svg>
