<svg width="24" height="25" viewBox="0 0 24 25" fill="none" xmlns="http://www.w3.org/2000/svg">
<path d="M9.04038 16.5404C8.91848 16.6623 8.85 16.8276 8.85 17C8.85 17.1724 8.91848 17.3377 9.04038 17.4596C9.16228 17.5815 9.32761 17.65 9.5 17.65H18.5C18.6724 17.65 18.8377 17.5815 18.9596 17.4596C19.0815 17.3377 19.15 17.1724 19.15 17C19.15 16.8276 19.0815 16.6623 18.9596 16.5404C18.8377 16.4185 18.6724 16.35 18.5 16.35H9.5C9.32761 16.35 9.16228 16.4185 9.04038 16.5404ZM9.04038 12.5404C8.91848 12.6623 8.85 12.8276 8.85 13C8.85 13.1724 8.91848 13.3377 9.04038 13.4596C9.16228 13.5815 9.32761 13.65 9.5 13.65H18.5C18.6724 13.65 18.8377 13.5815 18.9596 13.4596C19.0815 13.3377 19.15 13.1724 19.15 13C19.15 12.8276 19.0815 12.6623 18.9596 12.5404C18.8377 12.4185 18.6724 12.35 18.5 12.35H9.5C9.32761 12.35 9.16228 12.4185 9.04038 12.5404ZM9.04038 8.54038C8.91848 8.66228 8.85 8.82761 8.85 9C8.85 9.17239 8.91848 9.33772 9.04038 9.45962C9.16228 9.58152 9.32761 9.65 9.5 9.65H18.5C18.6724 9.65 18.8377 9.58152 18.9596 9.45962C19.0815 9.33772 19.15 9.17239 19.15 9C19.15 8.82761 19.0815 8.66228 18.9596 8.54038C18.8377 8.41848 18.6724 8.35 18.5 8.35H9.5C9.32761 8.35 9.16228 8.41848 9.04038 8.54038ZM6 10.15C6.305 10.15 6.59751 10.0288 6.81317 9.81317C7.02884 9.59751 7.15 9.305 7.15 9C7.15 8.695 7.02884 8.40249 6.81317 8.18683C6.59751 7.97116 6.305 7.85 6 7.85C5.695 7.85 5.40249 7.97116 5.18683 8.18683C4.97116 8.40249 4.85 8.695 4.85 9C4.85 9.305 4.97116 9.59751 5.18683 9.81317C5.40249 10.0288 5.695 10.15 6 10.15ZM6 14.15C6.305 14.15 6.59751 14.0288 6.81317 13.8132C7.02884 13.5975 7.15 13.305 7.15 13C7.15 12.695 7.02884 12.4025 6.81317 12.1868C6.59751 11.9712 6.305 11.85 6 11.85C5.695 11.85 5.40249 11.9712 5.18683 12.1868C4.97116 12.4025 4.85 12.695 4.85 13C4.85 13.305 4.97116 13.5975 5.18683 13.8132C5.40249 14.0288 5.695 14.15 6 14.15ZM6 18.15C6.305 18.15 6.59751 18.0288 6.81317 17.8132C7.02884 17.5975 7.15 17.305 7.15 17C7.15 16.695 7.02884 16.4025 6.81317 16.1868C6.59751 15.9712 6.305 15.85 6 15.85C5.695 15.85 5.40249 15.9712 5.18683 16.1868C4.97116 16.4025 4.85 16.695 4.85 17C4.85 17.305 4.97116 17.5975 5.18683 17.8132C5.40249 18.0288 5.695 18.15 6 18.15Z" fill="#777676" stroke="#777676" stroke-width="0.3"/>
</svg>
