<svg width="33" height="32" viewBox="0 0 33 32" fill="none" xmlns="http://www.w3.org/2000/svg">
<g opacity="0.7">
<path d="M20.6849 26L24.0708 26C25.4731 26 26.6094 24.8541 26.6094 23.44L26.6094 20.0255C26.6094 18.6114 25.4731 17.4655 24.0708 17.4655L20.6849 17.4655C19.2826 17.4655 18.1464 18.6114 18.1464 20.0255L18.1464 23.44C18.1464 24.8541 19.2826 26 20.6849 26" stroke="white" stroke-width="1.5"/>
<path d="M15.0724 23.44L15.8224 23.44L15.0724 23.44ZM15.0724 20.0255L14.3224 20.0255L15.0724 20.0255ZM12.5339 14.5343L12.5339 13.7843L12.5339 14.5343ZM9.1479 14.5343L9.1479 15.2843L9.1479 14.5343ZM15.0724 11.9743L15.8224 11.9743L15.0724 11.9743ZM15.0724 8.55975L14.3224 8.55975L15.0724 8.55975ZM18.1464 11.9743L18.8964 11.9743L18.1464 11.9743ZM18.1464 8.55975L17.3964 8.55975L18.1464 8.55975ZM20.6849 5.99979L20.6849 5.24979L20.6849 5.99979ZM24.0708 5.99979L24.0708 6.74979L24.0708 5.99979ZM26.6094 8.55975L25.8594 8.55975L26.6094 8.55975ZM26.6094 11.9743L27.3594 11.9743L26.6094 11.9743ZM12.5339 26.75L9.1479 26.75L9.1479 25.25L12.5339 25.25L12.5339 26.75ZM15.8224 23.44C15.8224 25.2624 14.3563 26.75 12.5339 26.75L12.5339 25.25C13.516 25.25 14.3224 24.4459 14.3224 23.44L15.8224 23.44ZM15.8224 20.0255L15.8224 23.44L14.3224 23.44L14.3224 20.0255L15.8224 20.0255ZM12.5339 16.7155C14.3563 16.7155 15.8224 18.2031 15.8224 20.0255L14.3224 20.0255C14.3224 19.0196 13.516 18.2155 12.5339 18.2155L12.5339 16.7155ZM9.1479 16.7155L12.5339 16.7155L12.5339 18.2155L9.1479 18.2155L9.1479 16.7155ZM5.85937 20.0255C5.85937 18.2031 7.32548 16.7155 9.1479 16.7155L9.1479 18.2155C8.16578 18.2155 7.35937 19.0196 7.35937 20.0255L5.85937 20.0255ZM5.85937 23.44L5.85937 20.0255L7.35937 20.0255L7.35937 23.44L5.85937 23.44ZM9.1479 26.75C7.32548 26.75 5.85937 25.2624 5.85937 23.44L7.35937 23.44C7.35937 24.4459 8.16578 25.25 9.1479 25.25L9.1479 26.75ZM12.5339 15.2843L9.1479 15.2843L9.1479 13.7843L12.5339 13.7843L12.5339 15.2843ZM15.8224 11.9743C15.8224 13.7967 14.3563 15.2843 12.5339 15.2843L12.5339 13.7843C13.516 13.7843 14.3224 12.9802 14.3224 11.9743L15.8224 11.9743ZM15.8224 8.55975L15.8224 11.9743L14.3224 11.9743L14.3224 8.55975L15.8224 8.55975ZM12.5339 5.24979C14.3565 5.24979 15.8224 6.73853 15.8224 8.55975L14.3224 8.55975C14.3224 7.55467 13.5158 6.74979 12.5339 6.74979L12.5339 5.24979ZM9.14789 5.24979L12.5339 5.24979L12.5339 6.74979L9.1479 6.74979L9.14789 5.24979ZM5.85937 8.55975C5.85937 6.73853 7.3253 5.24979 9.14789 5.24979L9.1479 6.74979C8.16596 6.74979 7.35937 7.55467 7.35937 8.55975L5.85937 8.55975ZM5.85937 11.9743L5.85937 8.55975L7.35937 8.55975L7.35937 11.9743L5.85937 11.9743ZM9.1479 15.2843C7.32548 15.2843 5.85937 13.7967 5.85937 11.9743L7.35937 11.9743C7.35937 12.9802 8.16578 13.7843 9.1479 13.7843L9.1479 15.2843ZM20.6849 13.7843L24.0708 13.7843L24.0708 15.2843L20.6849 15.2843L20.6849 13.7843ZM18.8964 11.9743C18.8964 12.9802 19.7028 13.7843 20.6849 13.7843L20.6849 15.2843C18.8625 15.2843 17.3964 13.7967 17.3964 11.9743L18.8964 11.9743ZM18.8964 8.55975L18.8964 11.9743L17.3964 11.9743L17.3964 8.55975L18.8964 8.55975ZM20.6849 6.74979C19.7029 6.74979 18.8964 7.55467 18.8964 8.55975L17.3964 8.55975C17.3964 6.73853 18.8623 5.24979 20.6849 5.24979L20.6849 6.74979ZM24.0708 6.74979L20.6849 6.74979L20.6849 5.24979L24.0708 5.24979L24.0708 6.74979ZM25.8594 8.55975C25.8594 7.55467 25.0528 6.74979 24.0708 6.74979L24.0708 5.24979C25.8934 5.24979 27.3594 6.73853 27.3594 8.55975L25.8594 8.55975ZM25.8594 11.9743L25.8594 8.55975L27.3594 8.55975L27.3594 11.9743L25.8594 11.9743ZM24.0708 13.7843C25.053 13.7843 25.8594 12.9802 25.8594 11.9743L27.3594 11.9743C27.3594 13.7967 25.8933 15.2843 24.0708 15.2843L24.0708 13.7843Z" fill="white"/>
</g>
</svg>
