<svg width="33" height="32" viewBox="0 0 33 32" fill="none" xmlns="http://www.w3.org/2000/svg">
<g id="Hicon / Linear / Document  Align Left 3" opacity="0.7">
<g id="1">
<path id="Vector" d="M16.5984 10.3218L16.7157 11.0626L16.5984 10.3218ZM15.0992 10.3218L14.9819 11.0626L15.0992 10.3218ZM22.2023 7.0727C22.4953 6.77992 22.4954 6.30504 22.2027 6.01204C21.9099 5.71905 21.435 5.71888 21.142 6.01166L22.2023 7.0727ZM10.3495 5.80564C10.0566 5.51275 9.58176 5.51277 9.28887 5.80566C8.99599 6.09856 8.996 6.57344 9.2889 6.86632L10.3495 5.80564ZM16.4811 9.58104C16.0622 9.64739 15.6354 9.64739 15.2165 9.58104L14.9819 11.0626C15.5563 11.1535 16.1414 11.1535 16.7157 11.0626L16.4811 9.58104ZM21.142 6.01166C19.9531 7.19973 19.0883 8.0511 18.3419 8.63895C17.6066 9.218 17.0462 9.49153 16.4811 9.58104L16.7157 11.0626C17.6317 10.9175 18.4285 10.4801 19.2699 9.81738C20.1002 9.16349 21.0318 8.24235 22.2023 7.0727L21.142 6.01166ZM9.2889 6.86632C10.5252 8.10259 11.4974 9.07327 12.3548 9.75952C13.2233 10.4546 14.0396 10.9133 14.9819 11.0626L15.2165 9.58104C14.6351 9.48896 14.059 9.2022 13.2921 8.58842C12.5142 7.96581 11.6082 7.06424 10.3495 5.80564L9.2889 6.86632Z" fill="white"/>
<path id="Vector_2" d="M8.8502 24.1695L9.29103 23.5627L8.8502 24.1695ZM7.79013 23.1094L8.39689 22.6686L7.79013 23.1094ZM23.2099 23.1094L22.6031 22.6686L23.2099 23.1094ZM22.1498 24.1695L21.709 23.5627L22.1498 24.1695ZM22.1498 6.8331L21.709 7.43986L22.1498 6.8331ZM23.2099 7.89316L22.6031 8.334L23.2099 7.89316ZM8.8502 6.8331L9.29103 7.43986L8.8502 6.8331ZM7.79013 7.89316L8.39689 8.334L7.79013 7.89316ZM21.6721 6.54218L21.3344 7.21186L21.6721 6.54218ZM9.81921 6.33598L10.0638 7.04496L9.81921 6.33598ZM23.375 14.543V16.4596H24.875V14.543H23.375ZM7.625 16.4596V14.543H6.125V16.4596H7.625ZM15.5 24.3346C13.6865 24.3346 12.3867 24.3336 11.3807 24.2246C10.3887 24.1171 9.77166 23.9119 9.29103 23.5627L8.40936 24.7763C9.1883 25.3422 10.0995 25.5946 11.2191 25.7159C12.3247 25.8357 13.72 25.8346 15.5 25.8346V24.3346ZM6.125 16.4596C6.125 18.2397 6.12397 19.6349 6.24375 20.7405C6.36506 21.8602 6.61743 22.7713 7.18336 23.5503L8.39689 22.6686C8.0477 22.188 7.8425 21.571 7.73503 20.579C7.62603 19.5729 7.625 18.2731 7.625 16.4596H6.125ZM9.29103 23.5627C8.94792 23.3135 8.64618 23.0117 8.39689 22.6686L7.18336 23.5503C7.52517 24.0207 7.9389 24.4345 8.40936 24.7763L9.29103 23.5627ZM23.375 16.4596C23.375 18.2731 23.374 19.5729 23.265 20.579C23.1575 21.571 22.9523 22.188 22.6031 22.6686L23.8166 23.5503C24.3826 22.7713 24.6349 21.8602 24.7562 20.7405C24.876 19.6349 24.875 18.2397 24.875 16.4596H23.375ZM15.5 25.8346C17.28 25.8346 18.6753 25.8357 19.7809 25.7159C20.9005 25.5946 21.8117 25.3422 22.5906 24.7763L21.709 23.5627C21.2283 23.9119 20.6113 24.1171 19.6193 24.2246C18.6133 24.3336 17.3135 24.3346 15.5 24.3346V25.8346ZM22.6031 22.6686C22.3538 23.0117 22.0521 23.3135 21.709 23.5627L22.5906 24.7763C23.0611 24.4345 23.4748 24.0207 23.8166 23.5503L22.6031 22.6686ZM24.875 14.543C24.875 12.7629 24.876 11.3677 24.7562 10.2621C24.6349 9.14243 24.3826 8.23127 23.8166 7.45233L22.6031 8.334C22.9523 8.81463 23.1575 9.43162 23.265 10.4236C23.374 11.4297 23.375 12.7295 23.375 14.543H24.875ZM21.709 7.43986C22.0521 7.68915 22.3538 7.99089 22.6031 8.334L23.8166 7.45233C23.4748 6.98187 23.0611 6.56814 22.5906 6.22633L21.709 7.43986ZM7.625 14.543C7.625 12.7295 7.62603 11.4297 7.73503 10.4236C7.8425 9.43162 8.0477 8.81463 8.39689 8.334L7.18336 7.45233C6.61743 8.23127 6.36506 9.14243 6.24375 10.2621C6.12397 11.3677 6.125 12.7629 6.125 14.543H7.625ZM8.40936 6.22633C7.9389 6.56814 7.52517 6.98187 7.18336 7.45233L8.39689 8.334C8.64618 7.99089 8.94792 7.68915 9.29103 7.43986L8.40936 6.22633ZM15.5 6.66797C17.093 6.66797 18.2925 6.6685 19.2493 6.74369C20.2037 6.81869 20.843 6.96403 21.3344 7.21186L22.0098 5.87251C21.2634 5.49612 20.3983 5.32936 19.3668 5.2483C18.3379 5.16744 17.0703 5.16797 15.5 5.16797V6.66797ZM21.3344 7.21186C21.4675 7.27894 21.5914 7.35445 21.709 7.43986L22.5906 6.22633C22.4066 6.09261 22.2135 5.97523 22.0098 5.87251L21.3344 7.21186ZM15.5 5.16797C14.1239 5.16797 12.9824 5.1677 12.0337 5.22142C11.0857 5.2751 10.277 5.38464 9.57458 5.627L10.0638 7.04496C10.5729 6.86931 11.2209 6.76985 12.1185 6.71902C13.0154 6.66824 14.1086 6.66797 15.5 6.66797V5.16797ZM9.57458 5.627C9.1497 5.7736 8.76443 5.96836 8.40936 6.22633L9.29103 7.43986C9.51501 7.27713 9.76555 7.14789 10.0638 7.04496L9.57458 5.627Z" fill="white"/>
<path id="Vector_3" d="M12 16.5537L14.2333 18.787L18.7 14.0013" stroke="white" stroke-width="1.5" stroke-linecap="round" stroke-linejoin="round"/>
</g>
</g>
</svg>
