<svg width="33" height="32" viewBox="0 0 33 32" fill="none" xmlns="http://www.w3.org/2000/svg">
<g opacity="0.7">
<path d="M26.4636 24.7709H28.81V26H3V24.7709H5.34636V7.17319C5.34636 6.86204 5.46997 6.56364 5.68998 6.34363C5.90999 6.12361 6.2084 6.00001 6.51955 6.00001L17.6648 6C17.9759 6 18.2743 6.1236 18.4943 6.34362C18.7144 6.56363 18.838 6.86203 18.838 7.17318V24.7709H25V14.5H20.0111V13.0391H25.2905C25.6016 13.0391 25.9 13.1627 26.12 13.3827C26.34 13.6027 26.4636 13.9011 26.4636 14.2123V24.7709ZM7.10614 7.75977V24.7709H17.0782V7.75977H7.10614ZM10.0391 15.2123H14.7318V16.972H10.0391V15.2123ZM10.0391 10.6927H14.7318V12.4525H10.0391V10.6927Z" fill="white"/>
</g>
</svg>
